<?xml version="1.0" encoding="UTF-8"?>
<svg id="Layer_2" data-name="Layer 2" xmlns="http://www.w3.org/2000/svg" viewBox="0 0 115.45 74.58">
  <defs>
    <style>
      .cls-1 {
        fill: #b30006;
      }

      .cls-2 {
        fill: #0578a5;
      }

      .cls-3 {
        fill: #fff;
      }

      .cls-4 {
        fill: #98171b;
      }

      .cls-5 {
        fill: #781012;
      }

      .cls-6 {
        fill: #079be5;
      }

      .cls-7 {
        fill: #e2a40a;
      }

      .cls-8 {
        fill: #096582;
      }

      .cls-9 {
        fill: #895d06;
      }

      .cls-10 {
        fill: #a57304;
      }
    </style>
  </defs>
  <g id="Layer_1-2" data-name="Layer 1">
    <g>
      <polyline class="cls-10" points="101.1 74.58 101.1 52.55 44.78 48.19 44.78 70.22"/>
      <polyline class="cls-9" points="101.1 52.55 115.45 48.19 115.45 70.22 101.1 74.58"/>
      <polygon class="cls-7" points="44.78 48.19 59.93 43.94 115.45 48.19 101.1 52.55 44.78 48.19"/>
      <path class="cls-10" d="M70.77,43.98v3.23c0,.43,2.27.77,5.07.77s5.07-.35,5.07-.77v-3.23h-10.13Z"/>
      <ellipse class="cls-7" cx="75.83" cy="43.94" rx="5.07" ry=".77"/>
      <path class="cls-10" d="M56.15,42.81v3.23c0,.43,2.27.77,5.07.77s5.07-.35,5.07-.77v-3.23h-10.13Z"/>
      <ellipse class="cls-7" cx="61.22" cy="42.77" rx="5.07" ry=".77"/>
      <path class="cls-10" d="M63.74,45.58v3.23c0,.43,2.27.77,5.07.77s5.07-.35,5.07-.77v-3.23h-10.13Z"/>
      <ellipse class="cls-7" cx="68.8" cy="45.54" rx="5.07" ry=".77"/>
      <path class="cls-10" d="M49.12,44.37v3.23c0,.43,2.27.77,5.07.77s5.07-.35,5.07-.77v-3.23h-10.13Z"/>
      <ellipse class="cls-7" cx="54.19" cy="44.37" rx="5.07" ry=".77"/>
      <g>
        <path class="cls-3" d="M48.53,54.06l4.62.2c2.56.14,4.41,1.9,4.4,4.33s-1.87,3.97-4.43,3.81l-2.1-.11v4.41s-2.52-.12-2.52-.12l.02-12.51ZM53.13,60.15c1.17.07,1.86-.64,1.86-1.72s-.72-1.84-1.85-1.9l-2.1-.1v3.62s2.09.11,2.09.11Z"/>
        <path class="cls-3" d="M59.57,54.62l2.5.16-.05,12.63-2.5-.19.04-12.61Z"/>
        <path class="cls-3" d="M64.86,54.98l8.22.57-.02,2.38-5.71-.41-.02,2.59,4.2.31v2.22s-4.21-.32-4.21-.32v3.19s5.92.46,5.92.46v2.32s-8.43-.66-8.43-.66l.06-12.66Z"/>
        <path class="cls-3" d="M88.73,56.89l8.22.57-.02,2.38-5.71-.41-.02,2.59,4.2.31v2.22s-4.21-.32-4.21-.32v3.19s5.92.46,5.92.46v2.32s-8.43-.66-8.43-.66l.06-12.66Z"/>
        <path class="cls-3" d="M81.01,55.81c2.32.12,4.3,1.42,5.38,3.5l-1.91,1.33c-.86-1.49-2.02-2.28-3.49-2.36-2.28-.13-3.97,1.56-3.98,3.99s1.64,4.27,3.92,4.41c1.46.09,2.64-.55,3.52-1.93l1.89,1.47c-1.07,1.92-3.08,2.97-5.43,2.83-3.57-.16-6.56-3.36-6.47-6.98-.03-3.67,3.02-6.55,6.58-6.26Z"/>
      </g>
      <g>
        <polyline class="cls-4" points="70.67 50.27 70.67 28.23 42.52 26.05 42.52 48.08"/>
        <polyline class="cls-8" points="70.67 28.23 85.03 23.87 85.03 45.9 70.67 50.27"/>
        <polygon class="cls-6" points="42.52 26.05 57.66 21.81 85.03 23.87 70.67 28.23 42.52 26.05"/>
        <path class="cls-2" d="M69.02,21.87v3.23c0,.43,2.27.77,5.07.77s5.07-.35,5.07-.77v-3.23h-10.13Z"/>
        <ellipse class="cls-6" cx="74.08" cy="21.83" rx="5.07" ry=".77"/>
        <path class="cls-2" d="M54.4,20.69v3.23c0,.43,2.27.77,5.07.77s5.07-.35,5.07-.77v-3.23h-10.13Z"/>
        <ellipse class="cls-6" cx="59.47" cy="20.66" rx="5.07" ry=".77"/>
        <path class="cls-2" d="M61.71,23.56v3.23c0,.43,2.27.77,5.07.77s5.07-.35,5.07-.77v-3.23h-10.13Z"/>
        <ellipse class="cls-6" cx="66.78" cy="23.53" rx="5.07" ry=".77"/>
        <path class="cls-2" d="M47.1,22.39v3.23c0,.43,2.27.77,5.07.77s5.07-.35,5.07-.77v-3.23h-10.13Z"/>
        <ellipse class="cls-6" cx="52.16" cy="22.35" rx="5.07" ry=".77"/>
        <polyline class="cls-2" points="56.32 54.63 56.32 32.6 28.16 30.42 28.16 52.45"/>
        <polyline class="cls-8" points="56.32 32.6 70.67 28.24 70.67 50.27 56.32 54.63"/>
        <polygon class="cls-6" points="28.16 30.42 43.31 26.17 70.67 28.24 56.32 32.6 28.16 30.42"/>
        <path class="cls-2" d="M55.11,25.61v3.23c0,.43,2.27.77,5.07.77s5.07-.35,5.07-.77v-3.23h-10.13Z"/>
        <ellipse class="cls-6" cx="60.18" cy="25.57" rx="5.07" ry=".77"/>
        <path class="cls-2" d="M40.5,24.44v3.23c0,.43,2.27.77,5.07.77s5.07-.35,5.07-.77v-3.23h-10.13Z"/>
        <ellipse class="cls-6" cx="45.56" cy="24.4" rx="5.07" ry=".77"/>
        <path class="cls-2" d="M47.63,27.83v3.23c0,.43,2.27.77,5.07.77s5.07-.35,5.07-.77v-3.23h-10.13Z"/>
        <ellipse class="cls-6" cx="52.7" cy="27.79" rx="5.07" ry=".77"/>
        <path class="cls-2" d="M33.02,26.66v3.23c0,.43,2.27.77,5.07.77s5.07-.35,5.07-.77v-3.23h-10.13Z"/>
        <ellipse class="cls-6" cx="38.08" cy="26.62" rx="5.07" ry=".77"/>
      </g>
      <g>
        <path class="cls-10" d="M99.44,46.18v3.23c0,.43,2.27.77,5.07.77s5.07-.35,5.07-.77v-3.23h-10.13Z"/>
        <ellipse class="cls-7" cx="104.51" cy="46.14" rx="5.07" ry=".77"/>
        <path class="cls-10" d="M84.83,45.01v3.23c0,.43,2.27.77,5.07.77s5.07-.35,5.07-.77v-3.23h-10.13Z"/>
        <ellipse class="cls-7" cx="89.89" cy="44.97" rx="5.07" ry=".77"/>
        <path class="cls-10" d="M92.41,47.78v3.23c0,.43,2.27.77,5.07.77s5.07-.35,5.07-.77v-3.23h-10.13Z"/>
        <ellipse class="cls-7" cx="97.48" cy="47.75" rx="5.07" ry=".77"/>
        <path class="cls-10" d="M77.8,46.61v3.23c0,.43,2.27.77,5.07.77s5.07-.35,5.07-.77v-3.23h-10.13Z"/>
        <ellipse class="cls-7" cx="82.86" cy="46.57" rx="5.07" ry=".77"/>
      </g>
      <g>
        <polyline class="cls-4" points="56.32 32.58 56.32 10.55 0 6.19 0 28.22"/>
        <polyline class="cls-5" points="56.32 10.55 70.67 6.19 70.67 28.22 56.32 32.58"/>
        <polygon class="cls-1" points="0 6.19 15.15 1.95 70.67 6.19 56.32 10.55 0 6.19"/>
        <path class="cls-5" d="M54.66,4.18v3.23c0,.43,2.27.77,5.07.77s5.07-.35,5.07-.77v-3.23h-10.13Z"/>
        <ellipse class="cls-1" cx="59.73" cy="4.15" rx="5.07" ry=".77"/>
        <path class="cls-5" d="M40.05,3.01v3.23c0,.43,2.27.77,5.07.77s5.07-.35,5.07-.77v-3.23h-10.13Z"/>
        <ellipse class="cls-1" cx="45.12" cy="2.97" rx="5.07" ry=".77"/>
        <path class="cls-5" d="M25.99,1.98v3.23c0,.43,2.27.77,5.07.77s5.07-.35,5.07-.77V1.98h-10.13Z"/>
        <ellipse class="cls-1" cx="31.05" cy="1.95" rx="5.07" ry=".77"/>
        <path class="cls-5" d="M11.37.81v3.23c0,.43,2.27.77,5.07.77s5.07-.35,5.07-.77V.81h-10.13Z"/>
        <ellipse class="cls-1" cx="16.44" cy=".77" rx="5.07" ry=".77"/>
        <path class="cls-5" d="M47.63,5.79v3.23c0,.43,2.27.77,5.07.77s5.07-.35,5.07-.77v-3.23h-10.13Z"/>
        <ellipse class="cls-1" cx="52.7" cy="5.75" rx="5.07" ry=".77"/>
        <path class="cls-5" d="M33.02,4.61v3.23c0,.43,2.27.77,5.07.77s5.07-.35,5.07-.77v-3.23h-10.13Z"/>
        <ellipse class="cls-1" cx="38.08" cy="4.58" rx="5.07" ry=".77"/>
        <path class="cls-5" d="M18.96,3.58v3.23c0,.43,2.27.77,5.07.77s5.07-.35,5.07-.77v-3.23h-10.13Z"/>
        <ellipse class="cls-1" cx="24.02" cy="3.55" rx="5.07" ry=".77"/>
        <path class="cls-5" d="M4.34,2.37v3.23c0,.43,2.27.77,5.07.77s5.07-.35,5.07-.77v-3.23H4.34Z"/>
        <ellipse class="cls-1" cx="9.41" cy="2.37" rx="5.07" ry=".77"/>
        <g>
          <path class="cls-3" d="M3.76,12.06l4.62.2c2.56.14,4.41,1.9,4.4,4.33s-1.87,3.97-4.43,3.81l-2.1-.11v4.41s-2.52-.12-2.52-.12l.02-12.51ZM8.35,18.16c1.17.07,1.86-.64,1.86-1.72s-.72-1.84-1.85-1.9l-2.1-.1v3.62s2.09.11,2.09.11Z"/>
          <path class="cls-3" d="M14.79,12.63l2.5.16-.05,12.63-2.5-.19.04-12.61Z"/>
          <path class="cls-3" d="M20.08,12.98l8.22.57-.02,2.38-5.71-.41-.02,2.59,4.2.31v2.22s-4.21-.32-4.21-.32v3.19s5.92.46,5.92.46v2.32s-8.43-.66-8.43-.66l.06-12.66Z"/>
          <path class="cls-3" d="M43.95,14.89l8.22.57-.02,2.38-5.71-.41-.02,2.59,4.2.31v2.22s-4.21-.32-4.21-.32v3.19s5.92.46,5.92.46v2.32s-8.43-.66-8.43-.66l.06-12.66Z"/>
          <path class="cls-3" d="M36.23,13.82c2.32.12,4.3,1.42,5.38,3.5l-1.91,1.33c-.86-1.49-2.02-2.28-3.49-2.36-2.28-.13-3.97,1.56-3.98,3.99s1.64,4.27,3.92,4.41c1.46.09,2.64-.55,3.52-1.93l1.89,1.47c-1.07,1.92-3.08,2.97-5.43,2.83-3.57-.16-6.56-3.36-6.47-6.98-.03-3.67,3.02-6.55,6.58-6.26Z"/>
        </g>
      </g>
      <g>
        <path class="cls-3" d="M38.19,47.9l-4.71-.31v-10.83s3.75.23,3.75.23c1.95.11,3.35,1.45,3.35,3.25,0,.8-.26,1.45-.78,1.93,1.17.51,1.87,1.46,1.87,2.77,0,1.86-1.44,3.08-3.48,2.96ZM35.57,38.82v2.5s1.49.09,1.49.09c.88.05,1.38-.4,1.38-1.18s-.5-1.28-1.38-1.33l-1.49-.09ZM38.04,43.3l-2.47-.15v2.71s2.47.16,2.47.16c.95.06,1.51-.42,1.51-1.26s-.56-1.39-1.51-1.44Z"/>
        <path class="cls-3" d="M47.37,44.06v4.29s-2.16-.12-2.16-.12v-4.21s-3.42-6.54-3.42-6.54l2.4.18,2.11,4.09,2.32-3.98,2.38.11-3.63,6.17Z"/>
      </g>
    </g>
  </g>
</svg>